PathFileType	4	(X/Y/Z)	Run_400 02
DataRate	CameraRate	NumFrames	NumMarkers	Units	OrigDataRate	OrigDataStartFrame	OrigNumFrames
100	100	4	45	mm	100	148	137
Frame#	Time	LASI			RASI			LPSI			RPSI			RTH1			RTH2			RTH3			LTH1			LTH2			LTH3			RTB1			RTB2			RTB3			RLMAL			RMMAL			LTB1			LTB2			LTB3			RCAL			RTOE			RMT5			LCAL			LTOE			LMT5			LACR			RACR			CLAV			C7			LPSH			RUA1			RUA2			RUA3			RLEL			RMEL			LUA1			LUA2			LUA3			LLEL			LMEL			RFAsuperior			RFAradius			RFAulna			LFAsuperior			LFAradius			LFAulna			
		X1	Y1	Z1	X2	Y2	Z2	X3	Y3	Z3	X4	Y4	Z4	X5	Y5	Z5	X6	Y6	Z6	X7	Y7	Z7	X8	Y8	Z8	X9	Y9	Z9	X10	Y10	Z10	X11	Y11	Z11	X12	Y12	Z12	X13	Y13	Z13	X14	Y14	Z14	X15	Y15	Z15	X16	Y16	Z16	X17	Y17	Z17	X18	Y18	Z18	X19	Y19	Z19	X20	Y20	Z20	X21	Y21	Z21	X22	Y22	Z22	X23	Y23	Z23	X24	Y24	Z24	X25	Y25	Z25	X26	Y26	Z26	X27	Y27	Z27	X28	Y28	Z28	X29	Y29	Z29	X30	Y30	Z30	X31	Y31	Z31	X32	Y32	Z32	X33	Y33	Z33	X34	Y34	Z34	X35	Y35	Z35	X36	Y36	Z36	X37	Y37	Z37	X38	Y38	Z38	X39	Y39	Z39	X40	Y40	Z40	X41	Y41	Z41	X42	Y42	Z42	X43	Y43	Z43	X44	Y44	Z44	X45	Y45	Z45	

148	1.58	936.953483	1047.847362	-439.900267	942.160979	1039.135	-211.508161	773.157663	1094.132621	-373.778188	776.525541	1093.061122	-284.379478	799.937381	796.8402160000001	-168.488348	852.434965	714.48306	-205.547286	758.081202	632.705827	-205.070219	910.5208720000001	845.61513	-489.621825	1041.287178	800.585556	-480.534804	1051.192794	696.007961	-469.470596	699.583001	388.997595	-268.283161	632.100189	360.376633	-230.7399	584.7733490000001	245.311157	-283.644999	486.924647	171.758589	-275.45196	520.600218	183.087069	-353.569557	1065.621982	502.025989	-430.479064	930.977546	494.56823	-453.304034	911.712411	384.710262	-420.719354	424.80803	178.925491	-345.25126	596.217937	60.351199	-315.821526	528.878902	61.208769	-248.188332	732.430978	348.951453	-370.330202	880.774245	185.5863	-413.447458	822.085123	219.21848	-475.166517	883.109512	1559.985365	-468.934072	940.649403	1525.23139	-158.512172	986.720748	1472.31011	-305.315649	877.586139	1567.448514	-305.020105	799.877415	1530.304146	-460.927219	906.682242	1372.928557	-71.704818	824.746141	1324.573839	-69.793768	838.733571	1268.444587	-30.916298	856.1456449999999	1204.066647	-11.922841	807.332366	1191.236769	-89.64899699999999	770.6748270000001	1472.292655	-529.098211	695.941918	1414.371062	-512.010368	685.278319	1382.839867	-579.841921	660.878889	1313.519877	-613.252492	639.093439	1296.799875	-526.1159249999999	911.563345	1167.375857	-52.752929	1051.549511	1243.00023	-172.328089	1067.181745	1179.09234	-154.160354	719.1954480000001	1239.371873	-589.8685410000001	885.415541	1248.967157	-536.906342	871.543677	1184.995515	-556.633762	
149	1.59	939.586403	1057.266925	-440.609711	946.752333	1045.008641	-213.784833	777.425444	1102.213318	-373.657134	781.125171	1099.797106	-284.119322	794.443629	805.241818	-168.556823	842.324623	721.447816	-205.823746	743.495142	644.786698	-203.484048	914.664395	855.8720080000001	-491.271467	1045.226703	811.181462	-480.734113	1055.612126	706.028414	-469.461688	675.794732	401.987817	-262.67769	606.953755	374.804026	-225.341721	561.490625	257.626123	-277.948013	463.475697	183.317537	-271.141534	499.759493	192.89603	-348.009967	1081.60122	506.973885	-430.418394	948.4857960000001	485.343103	-452.349337	940.936528	373.891605	-419.660149	405.596741	197.830571	-341.583473	558.674593	61.685433	-315.09521	493.134839	65.143227	-247.531013	766.616058	319.554557	-368.247469	930.942786	172.753461	-413.000865	868.563972	200.274808	-474.501264	880.510213	1567.183324	-469.023295	942.231082	1533.982053	-160.015572	987.226331	1480.768547	-306.823254	877.9202770000001	1574.910505	-305.566297	797.368847	1538.106451	-458.341942	910.194011	1382.495248	-71.939464	828.719598	1333.616332	-69.752245	843.225152	1278.000762	-30.236561	862.1331280000001	1213.175916	-11.472897	810.592184	1200.189727	-88.030402	765.6238530000001	1481.581896	-524.255909	691.652296	1424.120993	-503.93705	677.137215	1394.289031	-571.877529	650.702185	1324.614214	-604.942589	632.368918	1308.149599	-516.633118	916.898819	1178.496988	-54.996597	1049.608126	1259.768667	-179.347673	1067.832952	1196.301626	-161.718063	709.969771	1250.691845	-582.827276	878.083451	1261.470119	-535.828635	863.80936	1197.172747	-554.088935	
150	1.6	941.773188	1066.345051	-441.680625	951.048822	1050.996223	-215.755653	781.6932420000001	1109.900271	-373.517473	785.346083	1106.259101	-283.665035	789.810908	813.914051	-168.221715	833.378384	728.70975	-204.668455	730.622878	657.062967	-202.329144	917.865489	865.412338	-492.585191	1047.860551	819.6748679999999	-481.139441	1057.73842	713.60384	-468.778829	655.766016	415.206008	-257.259419	585.4001510000001	389.683849	-220.399555	541.201492	270.374693	-272.598306	442.835997	196.480343	-266.798084	481.514638	204.03816	-342.430237	1095.713142	510.508302	-430.855899	965.656896	474.739939	-451.878957	970.096279	362.852629	-418.51102	390.084696	218.35297	-337.42994	524.485069	64.311128	-313.545437	459.722126	72.975562	-246.880367	802.637519	290.89198	-366.775471	981.065243	161.570446	-411.05086	916.018453	182.084892	-472.873678	878.723461	1573.793415	-469.037804	943.9435590000001	1542.035709	-161.592253	987.711653	1488.492823	-308.120458	878.403359	1581.927827	-306.194961	795.603151	1545.585011	-455.969417	913.099404	1391.864574	-72.303427	832.104779	1342.622872	-69.67400000000001	846.8645770000001	1287.323565	-29.707483	866.984439	1221.955737	-11.263164	813.054168	1208.924121	-86.696001	761.647127	1490.494498	-519.697264	688.501483	1433.575871	-496.152959	670.363956	1404.967639	-563.634643	641.663246	1335.011733	-596.085657	626.894515	1318.769663	-507.03465	920.921304	1188.715013	-57.084196	1047.392245	1274.768219	-185.074545	1067.3335	1211.417169	-168.559748	701.863445	1261.329899	-575.531147	871.6915	1273.041621	-534.662518	857.078721	1208.477215	-551.618325	
151	1.61	943.581836	1074.481544	-442.663314	954.737173	1056.977997	-217.095858	785.614654	1116.935151	-373.211648	789.062413	1112.369031	-283.094654	785.652545	822.747602	-167.776851	825.8103620000001	735.9838559999999	-202.35275	720.384608	668.455771	-201.681649	920.094524	873.476317	-493.183451	1048.99232	825.74472	-481.73857	1057.575256	718.66602	-467.203098	639.917562	427.571247	-253.581207	568.446679	403.960904	-216.938683	523.208749	283.754138	-268.641183	423.909669	212.076983	-262.891485	463.909814	217.514282	-337.606178	1107.757861	512.470229	-431.579294	982.254418	463.014832	-451.880837	998.719261	351.89619	-417.422343	376.268329	240.428577	-333.051562	494.292076	68.382552	-310.873307	429.185307	85.78328	-246.015361	839.823638	263.230332	-365.671884	1030.6191	152.415788	-407.849079	964.03365	165.142016	-470.281634	877.460176	1579.641799	-468.870358	945.515842	1549.145465	-163.139769	988.178613	1495.21035	-309.294637	878.905038	1588.071211	-306.886012	794.405813	1552.389745	-453.904174	915.576191	1400.583833	-72.798811	835.03013	1351.182443	-69.184316	850.0315409999999	1295.904693	-29.265245	870.820156	1229.999675	-11.127039	814.756495	1217.095227	-85.48763700000001	758.653439	1498.708998	-515.899407	686.4806139999999	1442.584988	-489.059832	664.982813	1414.471296	-555.525622	633.804532	1344.316514	-586.978132	622.58859	1328.329994	-497.638016	923.74434	1197.712108	-58.943008	1045.225677	1287.756207	-189.794112	1065.920129	1224.18456	-174.632207	694.917094	1270.903141	-568.344908	866.246145	1283.431498	-533.574664	851.385278	1218.636697	-549.38875	
